<?xml version="1.0" encoding="UTF-8" standalone="no"?>
<!DOCTYPE svg PUBLIC "-//W3C//DTD SVG 1.1//EN" "http://www.w3.org/Graphics/SVG/1.1/DTD/svg11.dtd">
<svg version="1.1" baseProfile="full"xmlns:cc="http://web.resource.org/cc/"xmlns:rdf="http://www.w3.org/1999/02/22-rdf-syntax-ns#"xmlns:ev="http://www.w3.org/2001/xml-events"xmlns:svg="http://www.w3.org/2000/svg"xmlns="http://www.w3.org/2000/svg"xmlns:xlink="http://www.w3.org/1999/xlink"width="471px" height="328px" style="text-antialiasing:true">
<!--This SVG file was automatically generated by ScxmlEditor[2.1.4.1483] from [LCCA.4.scxml]-->
<rect  x="0" y="0"  width="470" height="327" fill="white"/>
<polyline fill="none"  stroke="rgb(160,160,160)"
points="0,327 0,0 470,0 "/>
<polyline fill="none"  stroke="white"
points="470,0 470,327 -1,327 "/>
<polyline fill="none"  stroke="rgb(160,160,160)"
points="1,326 1,1 469,1 "/>
<polyline fill="none"  stroke="white"
points="469,1 469,326 0,326 "/>
<g clip-path="url(#Clip1)">
<defs>
<clipPath id="Clip1" style="clip-rule:nonzero">
<rect  x="0" y="0"  width="470" height="327"/>
</clipPath>
</defs>
<g id="benchmark" class="TScxmlShape" >
<polygon fill="white" stroke="black"
points="3,3 468,3 468,325 3,325 "/>
<rect  x="4" y="4"  width="463" height="16" fill="rgb(192,220,192)"/>
<line x1="3" y1="20" x2="468" y2="20" fill="none"  stroke="black"/>
<text x="449" y="17" font-family="Tahoma" font-size="8pt"  fill="maroon">
null
</text>
<text x="210" y="18" font-family="Arial" font-size="8pt"  fill="black">
benchmark
</text>
</g>
<polygon fill="white" stroke="gray"
points="-8,160 0,160 0,168 -8,168 "/>
<line x1="-6" y1="164" x2="-1" y2="164" fill="none"  stroke="black"/>
<g id="mark" class="TParallelShape" >
<polygon fill="none" stroke="rgb(255,128,0)" stroke-width="2"
points="11,34 460,34 460,227 11,227 "/>
<rect  x="13" y="36"  width="445" height="16" fill="rgb(202,255,202)"/>
<line x1="11" y1="52" x2="460" y2="52" fill="none"  stroke="rgb(255,128,0)" stroke-width="2"/>
<text x="226" y="50" font-family="Arial" font-size="8pt"  fill="black">
mark
</text>
</g>
<polygon fill="white" stroke="gray"
points="0,126 8,126 8,134 0,134 "/>
<line x1="2" y1="130" x2="7" y2="130" fill="none"  stroke="black"/>
<g id="id1" class="TStateShape" >
<polygon fill="none" stroke="black"
points="349,65 452,65 452,219 349,219 "/>
<rect  x="350" y="66"  width="101" height="16" fill="rgb(128,214,255)"/>
<line x1="349" y1="82" x2="452" y2="82" fill="none"  stroke="black"/>
<text x="394" y="80" font-family="Arial" font-size="8pt"  fill="black">
id1
</text>
</g>
<polygon fill="white" stroke="gray"
points="338,138 346,138 346,146 338,146 "/>
<line x1="340" y1="142" x2="345" y2="142" fill="none"  stroke="black"/>
<g id="id2" class="TStateShape" >
<polygon fill="none" stroke="black"
points="357,96 444,96 444,211 357,211 "/>
<rect  x="358" y="97"  width="85" height="16" fill="rgb(128,214,255)"/>
<line x1="357" y1="113" x2="444" y2="113" fill="none"  stroke="black"/>
<text x="394" y="111" font-family="Arial" font-size="8pt"  fill="black">
id2
</text>
</g>
<polygon fill="white" stroke="gray"
points="346,149 354,149 354,157 346,157 "/>
<line x1="348" y1="153" x2="353" y2="153" fill="none"  stroke="black"/>
<g id="id3" class="TStateShape" >
<polygon fill="none" stroke="black"
points="365,127 436,127 436,203 365,203 "/>
<rect  x="366" y="128"  width="69" height="16" fill="rgb(128,214,255)"/>
<line x1="365" y1="144" x2="436" y2="144" fill="none"  stroke="black"/>
<text x="394" y="142" font-family="Arial" font-size="8pt"  fill="black">
id3
</text>
</g>
<polygon fill="white" stroke="gray"
points="354,161 362,161 362,169 354,169 "/>
<line x1="356" y1="165" x2="361" y2="165" fill="none"  stroke="black"/>
<g id="id4" class="TStateShape" >
<rect  x="373" y="158"  width="54" height="36" fill="rgb(128,214,255)" stroke="black" rx="10" ry="10"/>
<text x="394" y="181" font-family="Arial" font-size="8pt"  fill="black">
id4
</text>
</g>
<g id="StateMachineConnection1__40E596AE53BE801B" class="TStateMachineConnection" >
<line x1="409" y1="194" x2="409" y2="230" fill="none"  stroke="black"/>
<line x1="409" y1="230" x2="409" y2="307" fill="none"  stroke="black"/>
<line x1="409" y1="307" x2="272" y2="307" fill="none"  stroke="black"/>
<line x1="272" y1="307" x2="263" y2="305" fill="none"  stroke="black"/>
<ellipse cx="409" cy="194" rx="5" ry="5" fill="white" stroke="black"/>
<polygon fill="black" stroke="black"
points="274,302 272,312 263,305 "/>
</g>
<g id="id5" class="TStateShape" >
<polygon fill="none" stroke="black"
points="239,65 342,65 342,219 239,219 "/>
<rect  x="240" y="66"  width="101" height="16" fill="rgb(128,214,255)"/>
<line x1="239" y1="82" x2="342" y2="82" fill="none"  stroke="black"/>
<text x="284" y="80" font-family="Arial" font-size="8pt"  fill="black">
id5
</text>
</g>
<polygon fill="white" stroke="gray"
points="228,138 236,138 236,146 228,146 "/>
<line x1="230" y1="142" x2="235" y2="142" fill="none"  stroke="black"/>
<g id="id6" class="TStateShape" >
<polygon fill="none" stroke="black"
points="247,96 334,96 334,211 247,211 "/>
<rect  x="248" y="97"  width="85" height="16" fill="rgb(128,214,255)"/>
<line x1="247" y1="113" x2="334" y2="113" fill="none"  stroke="black"/>
<text x="284" y="111" font-family="Arial" font-size="8pt"  fill="black">
id6
</text>
</g>
<polygon fill="white" stroke="gray"
points="236,149 244,149 244,157 236,157 "/>
<line x1="238" y1="153" x2="243" y2="153" fill="none"  stroke="black"/>
<g id="id7" class="TStateShape" >
<polygon fill="none" stroke="black"
points="255,127 326,127 326,203 255,203 "/>
<rect  x="256" y="128"  width="69" height="16" fill="rgb(128,214,255)"/>
<line x1="255" y1="144" x2="326" y2="144" fill="none"  stroke="black"/>
<text x="284" y="142" font-family="Arial" font-size="8pt"  fill="black">
id7
</text>
</g>
<polygon fill="white" stroke="gray"
points="244,161 252,161 252,169 244,169 "/>
<line x1="246" y1="165" x2="251" y2="165" fill="none"  stroke="black"/>
<g id="id8" class="TStateShape" >
<rect  x="263" y="158"  width="54" height="36" fill="rgb(128,214,255)" stroke="black" rx="10" ry="10"/>
<text x="284" y="181" font-family="Arial" font-size="8pt"  fill="black">
id8
</text>
</g>
<g id="StateMachineConnection2__40E596AE53BE801B" class="TStateMachineConnection" >
<line x1="290" y1="194" x2="290" y2="226" fill="none"  stroke="black"/>
<line x1="290" y1="226" x2="290" y2="289" fill="none"  stroke="black"/>
<line x1="290" y1="289" x2="272" y2="289" fill="none"  stroke="black"/>
<line x1="272" y1="289" x2="263" y2="291" fill="none"  stroke="black"/>
<ellipse cx="290" cy="194" rx="5" ry="5" fill="white" stroke="black"/>
<polygon fill="black" stroke="black"
points="272,284 274,294 263,291 "/>
</g>
<g id="id9" class="TStateShape" >
<polygon fill="none" stroke="black"
points="129,65 232,65 232,219 129,219 "/>
<rect  x="130" y="66"  width="101" height="16" fill="rgb(128,214,255)"/>
<line x1="129" y1="82" x2="232" y2="82" fill="none"  stroke="black"/>
<text x="174" y="80" font-family="Arial" font-size="8pt"  fill="black">
id9
</text>
</g>
<polygon fill="white" stroke="gray"
points="118,138 126,138 126,146 118,146 "/>
<line x1="120" y1="142" x2="125" y2="142" fill="none"  stroke="black"/>
<g id="id10" class="TStateShape" >
<polygon fill="none" stroke="black"
points="137,96 224,96 224,211 137,211 "/>
<rect  x="138" y="97"  width="85" height="16" fill="rgb(128,214,255)"/>
<line x1="137" y1="113" x2="224" y2="113" fill="none"  stroke="black"/>
<text x="171" y="111" font-family="Arial" font-size="8pt"  fill="black">
id10
</text>
</g>
<polygon fill="white" stroke="gray"
points="126,149 134,149 134,157 126,157 "/>
<line x1="128" y1="153" x2="133" y2="153" fill="none"  stroke="black"/>
<g id="id11" class="TStateShape" >
<polygon fill="none" stroke="black"
points="145,127 216,127 216,203 145,203 "/>
<rect  x="146" y="128"  width="69" height="16" fill="rgb(128,214,255)"/>
<line x1="145" y1="144" x2="216" y2="144" fill="none"  stroke="black"/>
<text x="171" y="142" font-family="Arial" font-size="8pt"  fill="black">
id11
</text>
</g>
<polygon fill="white" stroke="gray"
points="134,161 142,161 142,169 134,169 "/>
<line x1="136" y1="165" x2="141" y2="165" fill="none"  stroke="black"/>
<g id="id12" class="TStateShape" >
<rect  x="153" y="158"  width="54" height="36" fill="rgb(128,214,255)" stroke="black" rx="10" ry="10"/>
<text x="171" y="181" font-family="Arial" font-size="8pt"  fill="black">
id12
</text>
</g>
<g id="StateMachineConnection3__40E596AE53BE801B" class="TStateMachineConnection" >
<line x1="180" y1="194" x2="180" y2="227" fill="none"  stroke="black"/>
<line x1="180" y1="227" x2="180" y2="292" fill="none"  stroke="black"/>
<line x1="180" y1="292" x2="198" y2="292" fill="none"  stroke="black"/>
<line x1="198" y1="292" x2="208" y2="294" fill="none"  stroke="black"/>
<ellipse cx="180" cy="194" rx="5" ry="5" fill="white" stroke="black"/>
<polygon fill="black" stroke="black"
points="197,297 199,287 208,294 "/>
</g>
<g id="id13" class="TStateShape" >
<polygon fill="none" stroke="black"
points="19,65 122,65 122,219 19,219 "/>
<rect  x="20" y="66"  width="101" height="16" fill="rgb(128,214,255)"/>
<line x1="19" y1="82" x2="122" y2="82" fill="none"  stroke="black"/>
<text x="61" y="80" font-family="Arial" font-size="8pt"  fill="black">
id13
</text>
</g>
<polygon fill="white" stroke="gray"
points="8,138 16,138 16,146 8,146 "/>
<line x1="10" y1="142" x2="15" y2="142" fill="none"  stroke="black"/>
<g id="id14" class="TStateShape" >
<polygon fill="none" stroke="black"
points="27,96 114,96 114,211 27,211 "/>
<rect  x="28" y="97"  width="85" height="16" fill="rgb(128,214,255)"/>
<line x1="27" y1="113" x2="114" y2="113" fill="none"  stroke="black"/>
<text x="61" y="111" font-family="Arial" font-size="8pt"  fill="black">
id14
</text>
</g>
<polygon fill="white" stroke="gray"
points="16,149 24,149 24,157 16,157 "/>
<line x1="18" y1="153" x2="23" y2="153" fill="none"  stroke="black"/>
<g id="id15" class="TStateShape" >
<polygon fill="none" stroke="black"
points="35,127 106,127 106,203 35,203 "/>
<rect  x="36" y="128"  width="69" height="16" fill="rgb(128,214,255)"/>
<line x1="35" y1="144" x2="106" y2="144" fill="none"  stroke="black"/>
<text x="61" y="142" font-family="Arial" font-size="8pt"  fill="black">
id15
</text>
</g>
<polygon fill="white" stroke="gray"
points="24,161 32,161 32,169 24,169 "/>
<line x1="26" y1="165" x2="31" y2="165" fill="none"  stroke="black"/>
<g id="id16" class="TStateShape" >
<rect  x="43" y="158"  width="54" height="36" fill="rgb(128,214,255)" stroke="black" rx="10" ry="10"/>
<text x="61" y="181" font-family="Arial" font-size="8pt"  fill="black">
id16
</text>
</g>
<g id="StateMachineConnection4__40E596AE53BE801B" class="TStateMachineConnection" >
<line x1="70" y1="194" x2="70" y2="229" fill="none"  stroke="black"/>
<line x1="70" y1="229" x2="70" y2="304" fill="none"  stroke="black"/>
<line x1="70" y1="304" x2="198" y2="304" fill="none"  stroke="black"/>
<line x1="198" y1="304" x2="208" y2="302" fill="none"  stroke="black"/>
<ellipse cx="70" cy="194" rx="5" ry="5" fill="white" stroke="black"/>
<polygon fill="black" stroke="black"
points="199,309 197,299 208,302 "/>
</g>
<g id="id17" class="TStateShape" >
<rect  x="208" y="280"  width="54" height="36" fill="rgb(128,214,255)" stroke="black" rx="10" ry="10"/>
<text x="226" y="303" font-family="Arial" font-size="8pt"  fill="black">
id17
</text>
</g>
<g id="StateMachineConnection5__40E596AE53BE801B" class="TStateMachineConnection" >
<line x1="262" y1="298" x2="307" y2="298" fill="none"  stroke="black"/>
<line x1="307" y1="298" x2="391" y2="298" fill="none"  stroke="black"/>
<line x1="391" y1="298" x2="391" y2="264" fill="none"  stroke="black"/>
<line x1="391" y1="264" x2="393" y2="227" fill="none"  stroke="black"/>
<ellipse cx="262" cy="298" rx="5" ry="5" fill="white" stroke="black"/>
<polygon fill="black" stroke="black"
points="397,237 387,237 393,227 "/>
</g>
<polygon fill="silver" stroke="silver"
points="-15,-13 -5,-13 -5,328 -15,328 "/>
</g>
<polyline fill="none"  stroke="rgb(160,160,160)"
points="0,327 0,0 470,0 "/>
<polyline fill="none"  stroke="white"
points="470,0 470,327 -1,327 "/>
<polyline fill="none"  stroke="rgb(160,160,160)"
points="1,326 1,1 469,1 "/>
<polyline fill="none"  stroke="white"
points="469,1 469,326 0,326 "/>
</svg>
