<?xml version="1.0" encoding="UTF-8" standalone="no"?>
<!DOCTYPE svg PUBLIC "-//W3C//DTD SVG 1.1//EN" "http://www.w3.org/Graphics/SVG/1.1/DTD/svg11.dtd">
<svg version="1.1" baseProfile="full"xmlns:cc="http://web.resource.org/cc/"xmlns:rdf="http://www.w3.org/1999/02/22-rdf-syntax-ns#"xmlns:ev="http://www.w3.org/2001/xml-events"xmlns:svg="http://www.w3.org/2000/svg"xmlns="http://www.w3.org/2000/svg"xmlns:xlink="http://www.w3.org/1999/xlink"width="566px" height="831px" style="text-antialiasing:true">
<!--This SVG file was automatically generated by ScxmlEditor[2.1.4.1483] from [bolero.scxml]-->
<rect  x="0" y="0"  width="565" height="830" fill="white"/>
<polyline fill="none"  stroke="rgb(160,160,160)"
points="0,830 0,0 565,0 "/>
<polyline fill="none"  stroke="white"
points="565,0 565,830 -1,830 "/>
<polyline fill="none"  stroke="rgb(160,160,160)"
points="1,829 1,1 564,1 "/>
<polyline fill="none"  stroke="white"
points="564,1 564,829 0,829 "/>
<g clip-path="url(#Clip1)">
<defs>
<clipPath id="Clip1" style="clip-rule:nonzero">
<rect  x="0" y="0"  width="565" height="830"/>
</clipPath>
</defs>
<g id="ScxmlBolero" class="TScxmlShape" >
<polygon fill="white" stroke="black"
points="-373,-419 1514,-419 1514,1162 -373,1162 "/>
<rect  x="-372" y="-418"  width="1885" height="16" fill="rgb(192,220,192)"/>
<line x1="-373" y1="-402" x2="1514" y2="-402" fill="none"  stroke="black"/>
<text x="1458" y="-405" font-family="Arial" font-size="8pt"  fill="maroon">
ecmascript
</text>
<text x="541" y="-404" font-family="Arial" font-size="8pt"  fill="black">
ScxmlBolero
</text>
</g>
<line x1="-340" y1="250" x2="-340" y2="254" fill="none"  stroke="black"/>
<line x1="-336" y1="258" x2="-325" y2="258" fill="none"  stroke="black"/>
<line x1="-316" y1="267" x2="-316" y2="274" fill="none"  stroke="black"/>
<line x1="-316" y1="274" x2="-303" y2="274" fill="none"  stroke="black"/>
<line x1="-316" y1="274" x2="-316" y2="290" fill="none"  stroke="black"/>
<line x1="-316" y1="290" x2="-303" y2="290" fill="none"  stroke="black"/>
<g id="start" class="TParallelShape" >
<polygon fill="none" stroke="rgb(255,128,0)" stroke-width="2"
points="-41,-388 1504,-388 1504,1144 -41,1144 "/>
<rect  x="-39" y="-386"  width="1541" height="16" fill="rgb(202,255,202)"/>
<line x1="-41" y1="-370" x2="1504" y2="-370" fill="none"  stroke="rgb(255,128,0)" stroke-width="2"/>
<text x="722" y="-372" font-family="Arial" font-size="8pt"  fill="black">
start
</text>
</g>
<g id="StateMachineConnection2__40E57E73561ACA77" class="TStateMachineConnection" >
</g>
<g id="StateMachineConnection9__40E57F2DAD192F94" class="TStateMachineConnection" >
</g>
<g id="operative" class="TStateShape" >
<polygon fill="none" stroke="black"
points="-19,-263 1484,-263 1484,1128 -19,1128 "/>
<rect  x="-18" y="-262"  width="1501" height="16" fill="rgb(128,214,255)"/>
<line x1="-19" y1="-246" x2="1484" y2="-246" fill="none"  stroke="black"/>
<text x="711" y="-248" font-family="Arial" font-size="8pt"  fill="black">
operative
</text>
</g>
<g id="StateMachineConnection21__40E5918D976C5357" class="TStateMachineConnection" >
</g>
<g id="on" class="TParallelShape" >
<polygon fill="none" stroke="black"
points="-8,-24 1461,-24 1461,1106 -8,1106 "/>
<rect  x="-7" y="-23"  width="1467" height="16" fill="rgb(202,255,202)"/>
<line x1="-8" y1="-7" x2="1461" y2="-7" fill="none"  stroke="black"/>
<text x="721" y="-9" font-family="Arial" font-size="8pt"  fill="black">
on
</text>
</g>
<g id="StateMachineConnection25__40E5918E19A75063" class="TStateMachineConnection" >
</g>
<g id="display" class="TStateShape" >
<polygon fill="none" stroke="black"
points="3,3 563,3 563,828 3,828 "/>
<rect  x="4" y="4"  width="558" height="16" fill="rgb(128,214,255)"/>
<line x1="3" y1="20" x2="563" y2="20" fill="none"  stroke="black"/>
<text x="267" y="18" font-family="Arial" font-size="8pt"  fill="black">
display
</text>
</g>
<line x1="10" y1="19" x2="10" y2="32" fill="none"  stroke="black"/>
<line x1="14" y1="28" x2="25" y2="28" fill="none"  stroke="black"/>
<polygon fill="rgb(255,255,255)" stroke="black"
points="21,26 21,30 25,28 "/>
<polygon fill="white" stroke="gray"
points="-8,411 0,411 0,419 -8,419 "/>
<line x1="-6" y1="415" x2="-1" y2="415" fill="none"  stroke="black"/>
<g id="OnEntryStateShape2__40E582B98B730973" class="TOnEntryStateShape" >
<ellipse cx="34" cy="28" rx="7" ry="7" fill="rgb(0,170,0)" stroke="black"/>
<polygon fill="white" stroke="rgb(32,32,32)"
points="44,21 89,21 89,36 44,36 "/>
<text x="49" y="33" font-family="Arial" font-size="8pt"  fill="black">
onentry
</text>
</g>
<line x1="34" y1="37" x2="34" y2="44" fill="none"  stroke="black"/>
<line x1="34" y1="44" x2="47" y2="44" fill="none"  stroke="black"/>
<polygon fill="rgb(255,255,255)" stroke="black"
points="43,42 43,46 47,44 "/>
<line x1="34" y1="44" x2="34" y2="60" fill="none"  stroke="black"/>
<line x1="34" y1="60" x2="47" y2="60" fill="none"  stroke="black"/>
<polygon fill="rgb(255,255,255)" stroke="black"
points="43,58 43,62 47,60 "/>
<polygon fill="white" stroke="gray"
points="6,24 14,24 14,32 6,32 "/>
<line x1="8" y1="28" x2="13" y2="28" fill="none"  stroke="black"/>
<g id="ScriptShape4__40E582B890EE1701" class="TScriptShape" >
<polygon fill="rgb(221,238,245)" stroke="rgb(4,121,179)"
points="59,51 59,48 50,48 49,49 49,50 50,51 "/>
<polygon fill="rgb(221,238,245)" stroke="rgb(4,121,179)"
points="51,48 51,39 52,38 61,38 61,50 60,51 60,51 59,51 59,48 "/>
<polygon fill="rgb(221,238,245)" stroke="rgb(4,121,179)"
points="61,38 62,38 63,39 63,40 62,41 61,41 "/>
<polygon fill="white" stroke="rgb(32,32,32)"
points="68,37 467,37 467,52 68,52 "/>
<text x="73" y="49" font-family="Arial" font-size="8pt"  fill="black">
script&#32;&#123;setDeviceMode(t_SETTINGS.Mode)&#32;t_SETTINGS.InfotainmentActive&#32;=&#32;true&#125;
</text>
</g>
<g id="SendShape1__40E58FD815BC45FD" class="TSendShape" >
<polygon fill="rgb(240,240,240)" stroke="rgb(174,174,174)"
points="49,56 61,56 61,65 49,65 "/>
<line x1="49" y1="56" x2="55" y2="61" fill="none"  stroke="rgb(174,174,174)"/>
<line x1="61" y1="56" x2="55" y2="61" fill="none"  stroke="rgb(174,174,174)"/>
<line x1="50" y1="64" x2="54" y2="61" fill="none"  stroke="rgb(200,200,200)"/>
<line x1="60" y1="64" x2="56" y2="61" fill="none"  stroke="rgb(200,200,200)"/>
<polygon fill="rgb(147,204,39)" stroke="rgb(105,150,0)"
points="56,64 61,64 61,62 64,65 61,68 61,66 56,66 "/>
<polygon fill="white" stroke="rgb(32,32,32)"
points="68,53 213,53 213,68 68,68 "/>
<text x="73" y="65" font-family="Arial" font-size="8pt"  fill="black">
send&#32;&#123;Out.SettingsChanged&#125;
</text>
</g>
<g id="displaySelect" class="TStateShape" >
<polygon fill="none" stroke="black"
points="12,185 552,185 552,785 12,785 "/>
<rect  x="13" y="186"  width="538" height="16" fill="rgb(128,214,255)"/>
<line x1="12" y1="202" x2="552" y2="202" fill="none"  stroke="black"/>
<text x="251" y="200" font-family="Arial" font-size="8pt"  fill="black">
displaySelect
</text>
</g>
<g id="StateMachineConnection18__40E582338CD6FE97" class="TStateMachineConnection" >
<line x1="77" y1="185" x2="12" y2="109" fill="none"  stroke="red" stroke-width="2" stroke-dasharray="4, 2" />
<line x1="12" y1="109" x2="552" y2="109" fill="none"  stroke="red" stroke-width="2" stroke-dasharray="4, 2" />
<line x1="552" y1="109" x2="487" y2="185" fill="none"  stroke="red" stroke-width="2" stroke-dasharray="4, 2" />
<ellipse cx="77" cy="185" rx="5" ry="5" fill="white" stroke="black"/>
<polygon fill="black" stroke="black"
points="492,169 502,178 487,185 "/>
<text x="260" y="120" font-family="Arial" font-size="8pt"  font-weight="bold" fill="black">
Inp.Btn.*
</text>
<text x="233" y="134" font-family="Arial" font-size="8pt"  fill="blue">
_event.data&#32;==&#32;1&#32;&amp;&amp;
</text>
<text x="204" y="148" font-family="Arial" font-size="8pt"  fill="blue">
_event.name&#32;!=&#32;&apos;Inp.Btn.Mute&apos;&#32;&amp;&amp;
</text>
<text x="218" y="162" font-family="Arial" font-size="8pt"  fill="blue">
_event.name&#32;!=&#32;&apos;Inp.Btn.TP&apos;
</text>
<text x="170" y="176" font-family="Arial" font-size="8pt"  fill="maroon">
&lt;script&gt;setDeviceMode(_event.name.replac&#32;...
</text>
</g>
<polygon fill="white" stroke="gray"
points="1,481 9,481 9,489 1,489 "/>
<line x1="3" y1="485" x2="8" y2="485" fill="none"  stroke="black"/>
<g id="displayRadio" class="TVirtualShape" >
<rect  x="331" y="222"  width="189" height="49" fill="silver" stroke="black" rx="10" ry="10"/>
<ellipse cx="325" cy="226" rx="4" ry="4" fill="yellow" stroke="black"/>
<text x="418" y="236" font-family="Arial" font-size="8pt"  fill="maroon">
_virtualRadio.scxml
</text>
<text x="397" y="252" font-family="Arial" font-size="8pt"  fill="black">
displayRadio
</text>
</g>
<g id="displayCheck" class="TStateShape" >
<rect  x="28" y="222"  width="49" height="549" fill="rgb(128,214,255)" stroke="rgb(255,128,0)" stroke-width="2" rx="10" ry="10"/>
<text x="48" y="545" font-family="Arial" font-size="8pt" transform="rotate(-90 48 531)" fill="black">
displayCheck
</text>
</g>
<g id="StateMachineConnection16__40E58233394B5E93" class="TStateMachineConnection" >
<line x1="78" y1="247" x2="331" y2="247" fill="none"  stroke="rgb(200,0,0)" stroke-dasharray="4, 2" />
<polygon fill="white" stroke="black"
points="93,240 93,254 78,247 "/>
<polygon fill="black" stroke="black"
points="316,240 316,254 331,247 "/>
<text x="132" y="258" font-family="Arial" font-size="8pt"  fill="blue">
s_DISPLAY_MODE&#32;==&#32;&quot;Radio&quot;
</text>
<text x="83" y="250" font-family="Arial" font-size="8pt"  font-weight="bold" fill="black">
1)
</text>
</g>
<g id="StateMachineConnection17__40E582334203BE7A" class="TStateMachineConnection" >
<line x1="78" y1="329" x2="331" y2="329" fill="none"  stroke="rgb(200,0,0)" stroke-dasharray="4, 2" />
<polygon fill="white" stroke="black"
points="93,322 93,336 78,329 "/>
<polygon fill="black" stroke="black"
points="316,322 316,336 331,329 "/>
<text x="132" y="340" font-family="Arial" font-size="8pt"  fill="blue">
s_DISPLAY_MODE&#32;==&#32;&quot;Media&quot;
</text>
<text x="83" y="332" font-family="Arial" font-size="8pt"  font-weight="bold" fill="black">
2)
</text>
</g>
<g id="StateMachineConnection8__40E58232A160FF0E" class="TStateMachineConnection" >
<line x1="78" y1="409" x2="331" y2="409" fill="none"  stroke="rgb(200,0,0)" stroke-dasharray="4, 2" />
<polygon fill="white" stroke="black"
points="93,402 93,416 78,409 "/>
<polygon fill="black" stroke="black"
points="316,402 316,416 331,409 "/>
<text x="133" y="420" font-family="Arial" font-size="8pt"  fill="blue">
s_DISPLAY_MODE&#32;==&#32;&quot;Menu&quot;
</text>
<text x="83" y="412" font-family="Arial" font-size="8pt"  font-weight="bold" fill="black">
3)
</text>
</g>
<g id="StateMachineConnection3__40E582ACA77B97CF" class="TStateMachineConnection" >
<line x1="78" y1="491" x2="331" y2="491" fill="none"  stroke="rgb(200,0,0)" stroke-dasharray="4, 2" />
<polygon fill="white" stroke="black"
points="93,484 93,498 78,491 "/>
<polygon fill="black" stroke="black"
points="316,484 316,498 331,491 "/>
<text x="130" y="502" font-family="Arial" font-size="8pt"  fill="blue">
s_DISPLAY_MODE&#32;==&#32;&quot;Sound&quot;
</text>
<text x="83" y="494" font-family="Arial" font-size="8pt"  font-weight="bold" fill="black">
4)
</text>
</g>
<g id="StateMachineConnection4__40E582AE1805D34F" class="TStateMachineConnection" >
<line x1="78" y1="651" x2="331" y2="651" fill="none"  stroke="rgb(200,0,0)" stroke-dasharray="4, 2" />
<polygon fill="white" stroke="black"
points="93,644 93,658 78,651 "/>
<polygon fill="black" stroke="black"
points="316,644 316,658 331,651 "/>
<text x="132" y="662" font-family="Arial" font-size="8pt"  fill="blue">
s_DISPLAY_MODE&#32;==&#32;&quot;Setup&quot;
</text>
<text x="83" y="654" font-family="Arial" font-size="8pt"  font-weight="bold" fill="black">
5)
</text>
</g>
<g id="StateMachineConnection19__40E582B933863657" class="TStateMachineConnection" >
<line x1="78" y1="731" x2="331" y2="731" fill="none"  stroke="rgb(200,0,0)" stroke-dasharray="4, 2" />
<polygon fill="white" stroke="black"
points="93,724 93,738 78,731 "/>
<polygon fill="black" stroke="black"
points="316,724 316,738 331,731 "/>
<text x="137" y="742" font-family="Arial" font-size="8pt"  fill="blue">
s_DISPLAY_MODE&#32;==&#32;&quot;Car&quot;
</text>
<text x="83" y="734" font-family="Arial" font-size="8pt"  font-weight="bold" fill="black">
6)
</text>
</g>
<g id="displaySound" class="TStateShape" >
<rect  x="331" y="466"  width="189" height="49" fill="rgb(128,214,255)" stroke="black" rx="10" ry="10"/>
<ellipse cx="325" cy="470" rx="4" ry="4" fill="yellow" stroke="black"/>
<text x="395" y="496" font-family="Arial" font-size="8pt"  fill="black">
displaySound
</text>
</g>
<line x1="338" y1="517" x2="338" y2="520" fill="none"  stroke="black"/>
<line x1="342" y1="524" x2="353" y2="524" fill="none"  stroke="black"/>
<polygon fill="rgb(255,255,255)" stroke="black"
points="349,522 349,526 353,524 "/>
<line x1="338" y1="528" x2="338" y2="552" fill="none"  stroke="black"/>
<line x1="342" y1="556" x2="353" y2="556" fill="none"  stroke="black"/>
<polygon fill="rgb(255,255,255)" stroke="black"
points="349,554 349,558 353,556 "/>
<polygon fill="white" stroke="gray"
points="320,487 328,487 328,495 320,495 "/>
<line x1="322" y1="491" x2="327" y2="491" fill="none"  stroke="black"/>
<g id="OnEntryStateShape4__40E582BA0E79CB37" class="TOnEntryStateShape" >
<ellipse cx="362" cy="524" rx="7" ry="7" fill="rgb(0,170,0)" stroke="black"/>
<polygon fill="white" stroke="rgb(32,32,32)"
points="372,517 417,517 417,532 372,532 "/>
<text x="377" y="529" font-family="Arial" font-size="8pt"  fill="black">
onentry
</text>
</g>
<line x1="362" y1="533" x2="362" y2="536" fill="none"  stroke="black"/>
<line x1="366" y1="540" x2="375" y2="540" fill="none"  stroke="black"/>
<polygon fill="rgb(255,255,255)" stroke="black"
points="371,538 371,542 375,540 "/>
<polygon fill="white" stroke="gray"
points="334,520 342,520 342,528 334,528 "/>
<line x1="336" y1="524" x2="341" y2="524" fill="none"  stroke="black"/>
<g id="SendShape1__40E582BA0F2894AB" class="TSendShape" >
<polygon fill="rgb(240,240,240)" stroke="rgb(174,174,174)"
points="377,536 389,536 389,545 377,545 "/>
<line x1="377" y1="536" x2="383" y2="541" fill="none"  stroke="rgb(174,174,174)"/>
<line x1="389" y1="536" x2="383" y2="541" fill="none"  stroke="rgb(174,174,174)"/>
<line x1="378" y1="544" x2="382" y2="541" fill="none"  stroke="rgb(200,200,200)"/>
<line x1="388" y1="544" x2="384" y2="541" fill="none"  stroke="rgb(200,200,200)"/>
<polygon fill="rgb(147,204,39)" stroke="rgb(105,150,0)"
points="384,544 389,544 389,542 392,545 389,548 389,546 384,546 "/>
<polygon fill="white" stroke="rgb(32,32,32)"
points="396,533 543,533 543,548 396,548 "/>
<text x="401" y="545" font-family="Arial" font-size="8pt"  fill="black">
send&#32;&#123;Out.DisplaySound=[1]&#125;
</text>
</g>
<polygon fill="white" stroke="gray"
points="358,536 366,536 366,544 358,544 "/>
<line x1="360" y1="540" x2="365" y2="540" fill="none"  stroke="black"/>
<line x1="362" y1="538" x2="362" y2="543" fill="none"  stroke="black"/>
<g id="OnExitStateShape1__40E582BA1266F86D" class="TOnExitStateShape" >
<ellipse cx="362" cy="556" rx="7" ry="7" fill="rgb(225,0,0)" stroke="black"/>
<polygon fill="white" stroke="rgb(32,32,32)"
points="372,549 409,549 409,564 372,564 "/>
<text x="377" y="561" font-family="Arial" font-size="8pt"  fill="black">
onexit
</text>
</g>
<line x1="362" y1="565" x2="362" y2="568" fill="none"  stroke="black"/>
<line x1="366" y1="572" x2="375" y2="572" fill="none"  stroke="black"/>
<polygon fill="rgb(255,255,255)" stroke="black"
points="371,570 371,574 375,572 "/>
<polygon fill="white" stroke="gray"
points="334,552 342,552 342,560 334,560 "/>
<line x1="336" y1="556" x2="341" y2="556" fill="none"  stroke="black"/>
<g id="SendShape2__40E582BA12E6D6A3" class="TSendShape" >
<polygon fill="rgb(240,240,240)" stroke="rgb(174,174,174)"
points="377,568 389,568 389,577 377,577 "/>
<line x1="377" y1="568" x2="383" y2="573" fill="none"  stroke="rgb(174,174,174)"/>
<line x1="389" y1="568" x2="383" y2="573" fill="none"  stroke="rgb(174,174,174)"/>
<line x1="378" y1="576" x2="382" y2="573" fill="none"  stroke="rgb(200,200,200)"/>
<line x1="388" y1="576" x2="384" y2="573" fill="none"  stroke="rgb(200,200,200)"/>
<polygon fill="rgb(147,204,39)" stroke="rgb(105,150,0)"
points="384,576 389,576 389,574 392,577 389,580 389,578 384,578 "/>
<polygon fill="white" stroke="rgb(32,32,32)"
points="396,565 543,565 543,580 396,580 "/>
<text x="401" y="577" font-family="Arial" font-size="8pt"  fill="black">
send&#32;&#123;Out.DisplaySound=[0]&#125;
</text>
</g>
<polygon fill="white" stroke="gray"
points="358,568 366,568 366,576 358,576 "/>
<line x1="360" y1="572" x2="365" y2="572" fill="none"  stroke="black"/>
<line x1="362" y1="570" x2="362" y2="575" fill="none"  stroke="black"/>
<g id="displayMenu" class="TVirtualShape" >
<rect  x="331" y="384"  width="189" height="49" fill="silver" stroke="black" rx="10" ry="10"/>
<ellipse cx="325" cy="388" rx="4" ry="4" fill="yellow" stroke="black"/>
<text x="419" y="398" font-family="Arial" font-size="8pt"  fill="maroon">
_virtualMenu.scxml
</text>
<text x="397" y="414" font-family="Arial" font-size="8pt"  fill="black">
displayMenu
</text>
</g>
<g id="displayVehicle" class="TStateShape" >
<rect  x="331" y="706"  width="189" height="49" fill="rgb(128,214,255)" stroke="black" rx="10" ry="10"/>
<ellipse cx="325" cy="710" rx="4" ry="4" fill="yellow" stroke="black"/>
<text x="392" y="736" font-family="Arial" font-size="8pt"  fill="black">
displayVehicle
</text>
</g>
<g id="displaySetup" class="TVirtualShape" >
<rect  x="331" y="626"  width="189" height="49" fill="silver" stroke="black" rx="10" ry="10"/>
<ellipse cx="325" cy="630" rx="4" ry="4" fill="yellow" stroke="black"/>
<text x="417" y="640" font-family="Arial" font-size="8pt"  fill="maroon">
_virtualSetup.scxml
</text>
<text x="396" y="656" font-family="Arial" font-size="8pt"  fill="black">
displaySetup
</text>
</g>
<g id="displayMedia" class="TVirtualShape" >
<rect  x="331" y="304"  width="189" height="49" fill="silver" stroke="black" rx="10" ry="10"/>
<ellipse cx="325" cy="308" rx="4" ry="4" fill="yellow" stroke="black"/>
<text x="417" y="318" font-family="Arial" font-size="8pt"  fill="maroon">
_virtualMedia.scxml
</text>
<text x="396" y="334" font-family="Arial" font-size="8pt"  fill="black">
displayMedia
</text>
</g>
<g id="StateMachineConnection6__40E57EAFBAC84DB2" class="TStateMachineConnection" >
</g>
<g id="StateMachineConnection7__40E57EAFBAC853E9" class="TStateMachineConnection" >
</g>
<g id="StateMachineConnection10__40E582B89547E2E6" class="TStateMachineConnection" >
</g>
<g id="StateMachineConnection11__40E57F2DE5986C3B" class="TStateMachineConnection" >
</g>
<g id="StateMachineConnection12__40E57F2DEB225AD6" class="TStateMachineConnection" >
</g>
<g id="StateMachineConnection20__40E582BA864AC71D" class="TStateMachineConnection" >
</g>
<g id="StateMachineConnection23__40E582CE1533D019" class="TStateMachineConnection" >
</g>
<line x1="1258" y1="663" x2="1258" y2="666" fill="none"  stroke="black"/>
<line x1="1262" y1="670" x2="1273" y2="670" fill="none"  stroke="black"/>
<line x1="1258" y1="674" x2="1258" y2="698" fill="none"  stroke="black"/>
<line x1="1262" y1="702" x2="1273" y2="702" fill="none"  stroke="black"/>
<line x1="1282" y1="679" x2="1282" y2="686" fill="none"  stroke="black"/>
<line x1="1282" y1="686" x2="1295" y2="686" fill="none"  stroke="black"/>
<line x1="1282" y1="711" x2="1282" y2="718" fill="none"  stroke="black"/>
<line x1="1282" y1="718" x2="1295" y2="718" fill="none"  stroke="black"/>
<g id="StateMachineConnection22__40E582CEE126D6D5" class="TStateMachineConnection" >
</g>
<g id="StateMachineConnection13__40E58E6D4846008D" class="TStateMachineConnection" >
</g>
<g id="StateMachineConnection15__40E58E6DA01BC492" class="TStateMachineConnection" >
</g>
<g id="StateMachineConnection14__40E58E6D9C427EA9" class="TStateMachineConnection" >
</g>
<g id="StateMachineConnection5__40E58E6D2523F049" class="TStateMachineConnection" >
</g>
<g id="StateMachineConnection1__40E57E581C5A22E3" class="TStateMachineConnection" >
</g>
<g id="StateMachineConnection26__40E591B15D70CF56" class="TStateMachineConnection" >
</g>
<g id="StateMachineConnection24__40E5918E041BC176" class="TStateMachineConnection" >
</g>
</g>
<polyline fill="none"  stroke="rgb(160,160,160)"
points="0,830 0,0 565,0 "/>
<polyline fill="none"  stroke="white"
points="565,0 565,830 -1,830 "/>
<polyline fill="none"  stroke="rgb(160,160,160)"
points="1,829 1,1 564,1 "/>
<polyline fill="none"  stroke="white"
points="564,1 564,829 0,829 "/>
</svg>
