<?xml version="1.0" encoding="UTF-8" standalone="no"?>
<!DOCTYPE svg PUBLIC "-//W3C//DTD SVG 1.1//EN" "http://www.w3.org/Graphics/SVG/1.1/DTD/svg11.dtd">
<svg version="1.1" baseProfile="full"xmlns:cc="http://web.resource.org/cc/"xmlns:rdf="http://www.w3.org/1999/02/22-rdf-syntax-ns#"xmlns:ev="http://www.w3.org/2001/xml-events"xmlns:svg="http://www.w3.org/2000/svg"xmlns="http://www.w3.org/2000/svg"xmlns:xlink="http://www.w3.org/1999/xlink"shape-rendering="crispEdges"
width="536" height="691">
<!--This SVG file was automatically generated by ScxmlEditor[2.1.7.1537] from [StopWatch.scxml]-->
<rect  x="0" y="0"  width="535" height="690" fill="white"/>
<polyline fill="none"  stroke="rgb(160,160,160)"
points="0,690 0,0 535,0 "/>
<polyline fill="none"  stroke="white"
points="535,0 535,690 -1,690 "/>
<polyline fill="none"  stroke="rgb(160,160,160)"
points="1,689 1,1 534,1 "/>
<polyline fill="none"  stroke="white"
points="534,1 534,689 0,689 "/>
<g clip-path="url(#Clip1)">
<defs>
<clipPath id="Clip1" style="clip-rule:nonzero">
<rect  x="0" y="0"  width="535" height="690"/>
</clipPath>
</defs>
<g id="ScxmlStopWatch" class="TScxmlShape" >
<polygon fill="white" stroke="black"
points="3,3 533,3 533,688 3,688 "/>
<rect  x="4" y="4"  width="528" height="16" fill="rgb(192,220,192)"/>
<line x1="3" y1="20" x2="533" y2="20" fill="none"  stroke="black"/>
<text x="477" y="17" font-family="Arial" font-size="10.67"  fill="maroon">
ecmascript
</text>
<text x="228" y="18" font-family="Arial" font-size="10.67"  fill="black">
ScxmlStopWatch
</text>
</g>
<polygon fill="white" stroke="gray"
points="-8,341 0,341 0,349 -8,349 "/>
<line x1="-6" y1="345" x2="-1" y2="345" fill="none"  stroke="black"/>
<g id="stopWatch" class="TStateShape" >
<polygon fill="none" stroke="black"
points="19,68 489,68 489,678 19,678 "/>
<rect  x="20" y="69"  width="468" height="16" fill="rgb(128,214,255)"/>
<line x1="19" y1="85" x2="489" y2="85" fill="none"  stroke="black"/>
<text x="229" y="83" font-family="Arial" font-size="10.67"  fill="black">
stopWatch
</text>
</g>
<g id="StateMachineConnection7__40E594745765B931" class="TStateMachineConnection" >
<line x1="75" y1="68" x2="19" y2="34" fill="none"  stroke="blue" stroke-dasharray="2, 2" />
<line x1="19" y1="34" x2="489" y2="34" fill="none"  stroke="blue" stroke-dasharray="2, 2" />
<line x1="489" y1="34" x2="433" y2="68" fill="none"  stroke="blue" stroke-dasharray="2, 2" />
<ellipse cx="75" cy="68" rx="5" ry="5" fill="white" stroke="black"/>
<polygon fill="black" stroke="black"
points="442,54 449,66 433,68 "/>
<text x="235" y="45" font-family="Arial" font-size="10.67"  font-weight="bold" fill="black">
display
</text>
<text x="141" y="59" font-family="Arial" font-size="10.67"  fill="maroon">
&lt;send&#32;event=&quot;out.display&quot;&gt;&#13;&#10;&lt;param&#32;expr=&#32;...
</text>
</g>
<polygon fill="white" stroke="gray"
points="8,369 16,369 16,377 8,377 "/>
<line x1="10" y1="373" x2="15" y2="373" fill="none"  stroke="black"/>
<g id="ready" class="TStateShape" >
<rect  x="38" y="103"  width="260" height="36" fill="rgb(128,214,255)" stroke="rgb(255,128,0)" stroke-width="2" rx="10" ry="10"/>
<text x="156" y="127" font-family="Arial" font-size="10.67"  fill="black">
ready
</text>
</g>
<g id="StateMachineConnection1__40E5944C607838DF" class="TStateMachineConnection" >
<line x1="254" y1="140" x2="254" y2="234" fill="none"  stroke="black"/>
<ellipse cx="254" cy="140" rx="5" ry="5" fill="white" stroke="black"/>
<polygon fill="black" stroke="black"
points="249,224 259,224 254,234 "/>
<text x="232" y="196" font-family="Arial" font-size="10.67"  font-weight="bold" fill="black">
button.1
</text>
<text x="184" y="210" font-family="Arial" font-size="10.67"  fill="maroon">
&lt;script&gt;Timer.start()&lt;/script&gt;
</text>
</g>
<line x1="45" y1="140" x2="45" y2="144" fill="none"  stroke="black"/>
<line x1="49" y1="148" x2="60" y2="148" fill="none"  stroke="black"/>
<polygon fill="rgb(255,255,255)" stroke="black"
points="56,146 56,150 60,148 "/>
<polygon fill="white" stroke="gray"
points="27,117 35,117 35,125 27,125 "/>
<line x1="29" y1="121" x2="34" y2="121" fill="none"  stroke="black"/>
<g id="OnEntryStateShape2__40E59459CFDC0D63" class="TOnEntryStateShape" >
<ellipse cx="69" cy="148" rx="7" ry="7" fill="rgb(0,170,0)" stroke="black"/>
<polygon fill="white" stroke="rgb(32,32,32)"
points="79,141 124,141 124,156 79,156 "/>
<text x="84" y="153" font-family="Arial" font-size="10.67"  fill="black">
onentry
</text>
</g>
<line x1="69" y1="164" x2="69" y2="180" fill="none"  stroke="black"/>
<line x1="69" y1="180" x2="82" y2="180" fill="none"  stroke="black"/>
<polygon fill="rgb(255,255,255)" stroke="black"
points="78,178 78,182 82,180 "/>
<line x1="69" y1="157" x2="69" y2="164" fill="none"  stroke="black"/>
<line x1="69" y1="164" x2="82" y2="164" fill="none"  stroke="black"/>
<polygon fill="rgb(255,255,255)" stroke="black"
points="78,162 78,166 82,164 "/>
<polygon fill="white" stroke="gray"
points="41,144 49,144 49,152 41,152 "/>
<line x1="43" y1="148" x2="48" y2="148" fill="none"  stroke="black"/>
<g id="ScriptShape1__40E59479AC20C7B7" class="TScriptShape" >
<polygon fill="rgb(221,238,245)" stroke="rgb(4,121,179)"
points="94,171 94,168 85,168 84,169 84,170 85,171 "/>
<polygon fill="rgb(221,238,245)" stroke="rgb(4,121,179)"
points="86,168 86,159 87,158 96,158 96,170 95,171 95,171 94,171 94,168 "/>
<polygon fill="rgb(221,238,245)" stroke="rgb(4,121,179)"
points="96,158 97,158 98,159 98,160 97,161 96,161 "/>
<polygon fill="white" stroke="rgb(32,32,32)"
points="103,157 294,157 294,172 103,172 "/>
<text x="108" y="169" font-family="Arial" font-size="10.67"  fill="black">
script&#32;&#123;iLapElapsed&#32;=&#32;0&#32;iLapCount&#32;=&#32;0&#125;
</text>
</g>
<g id="RaiseShape1__40E59475F76E5D4C" class="TRaiseShape" >
<polygon fill="rgb(255,200,0)" stroke="rgb(191,120,54)"
points="84,173 91,173 91,180 84,180 "/>
<polygon fill="rgb(255,200,0)" stroke="rgb(191,120,54)"
points="90,179 97,179 97,186 90,186 "/>
<polygon fill="rgb(210,234,255)" stroke="rgb(4,121,179)"
points="87,176 94,176 94,183 87,183 "/>
<polygon fill="white" stroke="rgb(32,32,32)"
points="103,173 180,173 180,188 103,188 "/>
<text x="108" y="185" font-family="Arial" font-size="10.67"  fill="black">
raise&#32;&#123;display&#125;
</text>
</g>
<g id="active" class="TStateShape" >
<polygon fill="none" stroke="black"
points="38,234 449,234 449,500 38,500 "/>
<rect  x="39" y="235"  width="409" height="16" fill="rgb(128,214,255)"/>
<line x1="38" y1="251" x2="449" y2="251" fill="none"  stroke="black"/>
<text x="230" y="249" font-family="Arial" font-size="10.67"  fill="black">
active
</text>
</g>
<g id="StateMachineConnection5__40E59458DF1B4DBB" class="TStateMachineConnection" >
<line x1="112" y1="500" x2="112" y2="594" fill="none"  stroke="black"/>
<ellipse cx="112" cy="500" rx="5" ry="5" fill="white" stroke="black"/>
<polygon fill="black" stroke="black"
points="105,579 119,579 112,594 "/>
<text x="90" y="544" font-family="Arial" font-size="10.67"  font-weight="bold" fill="black">
button.1
</text>
<text x="32" y="558" font-family="Arial" font-size="10.67"  fill="maroon">
&lt;script&gt;Timer.suspend()&lt;/script&gt;
</text>
</g>
<polygon fill="white" stroke="gray"
points="27,363 35,363 35,371 27,371 "/>
<line x1="29" y1="367" x2="34" y2="367" fill="none"  stroke="black"/>
<g id="generator" class="TStateShape" >
<rect  x="60" y="365"  width="376" height="36" fill="rgb(128,214,255)" stroke="black" rx="10" ry="10"/>
<text x="226" y="388" font-family="Arial" font-size="10.67"  fill="black">
generator
</text>
</g>
<line x1="67" y1="402" x2="67" y2="406" fill="none"  stroke="black"/>
<line x1="71" y1="410" x2="82" y2="410" fill="none"  stroke="black"/>
<polygon fill="rgb(255,255,255)" stroke="black"
points="78,408 78,412 82,410 "/>
<g id="StateMachineConnection4__40E59455581A0B64" class="TStateMachineConnection" >
<line x1="90" y1="365" x2="60" y2="335" fill="none"  stroke="red" stroke-width="2" stroke-dasharray="4, 2" />
<line x1="60" y1="335" x2="437" y2="335" fill="none"  stroke="red" stroke-width="2" stroke-dasharray="4, 2" />
<line x1="437" y1="335" x2="407" y2="365" fill="none"  stroke="red" stroke-width="2" stroke-dasharray="4, 2" />
<ellipse cx="90" cy="365" rx="5" ry="5" fill="white" stroke="black"/>
<polygon fill="black" stroke="black"
points="413,349 423,359 407,365 "/>
<text x="229" y="346" font-family="Arial" font-size="10.67"  font-weight="bold" fill="black">
update
</text>
<text x="95" y="368" font-family="Arial" font-size="10.67"  font-weight="bold" fill="black">
1)
</text>
</g>
<g id="StateMachineConnection3__40E59455A7F65D21" class="TStateMachineConnection" >
<line x1="120" y1="365" x2="60" y2="273" fill="none"  stroke="red" stroke-width="2" stroke-dasharray="4, 2" />
<line x1="60" y1="273" x2="437" y2="273" fill="none"  stroke="red" stroke-width="2" stroke-dasharray="4, 2" />
<line x1="437" y1="273" x2="377" y2="365" fill="none"  stroke="red" stroke-width="2" stroke-dasharray="4, 2" />
<ellipse cx="120" cy="365" rx="5" ry="5" fill="white" stroke="black"/>
<polygon fill="black" stroke="black"
points="379,349 391,356 377,365 "/>
<text x="226" y="284" font-family="Arial" font-size="10.67"  font-weight="bold" fill="black">
button.2
</text>
<text x="156" y="298" font-family="Arial" font-size="10.67"  fill="maroon">
&lt;script&gt;iLapElapsed&#32;=&#32;Timer.elapsed()
</text>
<text x="218" y="312" font-family="Arial" font-size="10.67"  fill="maroon">
iLapCount++
</text>
<text x="227" y="326" font-family="Arial" font-size="10.67"  fill="maroon">
&lt;/script&gt;
</text>
<text x="125" y="368" font-family="Arial" font-size="10.67"  font-weight="bold" fill="black">
2)
</text>
</g>
<line x1="67" y1="414" x2="67" y2="454" fill="none"  stroke="black"/>
<line x1="71" y1="458" x2="82" y2="458" fill="none"  stroke="black"/>
<polygon fill="rgb(255,255,255)" stroke="black"
points="78,456 78,460 82,458 "/>
<polygon fill="white" stroke="gray"
points="49,379 57,379 57,387 49,387 "/>
<line x1="51" y1="383" x2="56" y2="383" fill="none"  stroke="black"/>
<g id="OnEntryStateShape1__40E59453AE1232C9" class="TOnEntryStateShape" >
<ellipse cx="91" cy="410" rx="7" ry="7" fill="rgb(0,170,0)" stroke="black"/>
<polygon fill="white" stroke="rgb(32,32,32)"
points="101,403 146,403 146,418 101,418 "/>
<text x="106" y="415" font-family="Arial" font-size="10.67"  fill="black">
onentry
</text>
</g>
<line x1="91" y1="426" x2="91" y2="442" fill="none"  stroke="black"/>
<line x1="91" y1="442" x2="104" y2="442" fill="none"  stroke="black"/>
<polygon fill="rgb(255,255,255)" stroke="black"
points="100,440 100,444 104,442 "/>
<line x1="91" y1="419" x2="91" y2="426" fill="none"  stroke="black"/>
<line x1="91" y1="426" x2="104" y2="426" fill="none"  stroke="black"/>
<polygon fill="rgb(255,255,255)" stroke="black"
points="100,424 100,428 104,426 "/>
<polygon fill="white" stroke="gray"
points="63,406 71,406 71,414 63,414 "/>
<line x1="65" y1="410" x2="70" y2="410" fill="none"  stroke="black"/>
<g id="RaiseShape3__40E59479AF721402" class="TRaiseShape" >
<polygon fill="rgb(255,200,0)" stroke="rgb(191,120,54)"
points="106,419 113,419 113,426 106,426 "/>
<polygon fill="rgb(255,200,0)" stroke="rgb(191,120,54)"
points="112,425 119,425 119,432 112,432 "/>
<polygon fill="rgb(210,234,255)" stroke="rgb(4,121,179)"
points="109,422 116,422 116,429 109,429 "/>
<polygon fill="white" stroke="rgb(32,32,32)"
points="125,419 202,419 202,434 125,434 "/>
<text x="130" y="431" font-family="Arial" font-size="10.67"  fill="black">
raise&#32;&#123;display&#125;
</text>
</g>
<g id="SendShape1__40E59453AECA1669" class="TSendShape" >
<polygon fill="rgb(240,240,240)" stroke="rgb(174,174,174)"
points="106,438 118,438 118,447 106,447 "/>
<line x1="106" y1="438" x2="112" y2="443" fill="none"  stroke="rgb(174,174,174)"/>
<line x1="118" y1="438" x2="112" y2="443" fill="none"  stroke="rgb(174,174,174)"/>
<line x1="107" y1="446" x2="111" y2="443" fill="none"  stroke="rgb(200,200,200)"/>
<line x1="117" y1="446" x2="113" y2="443" fill="none"  stroke="rgb(200,200,200)"/>
<polygon fill="rgb(147,204,39)" stroke="rgb(105,150,0)"
points="113,446 118,446 118,444 121,447 118,450 118,448 113,448 "/>
<polygon fill="white" stroke="rgb(32,32,32)"
points="125,435 398,435 398,450 125,450 "/>
<text x="130" y="447" font-family="Arial" font-size="10.67"  fill="black">
send&#32;&#123;update[i_UPDATE_DELAY_MS&#32;+&#32;&apos;ms&apos;][ID.update]&#125;
</text>
</g>
<g id="OnExitStateShape1__40E59454ECB467F3" class="TOnExitStateShape" >
<ellipse cx="91" cy="458" rx="7" ry="7" fill="rgb(225,0,0)" stroke="black"/>
<polygon fill="white" stroke="rgb(32,32,32)"
points="101,451 138,451 138,466 101,466 "/>
<text x="106" y="463" font-family="Arial" font-size="10.67"  fill="black">
onexit
</text>
</g>
<line x1="91" y1="467" x2="91" y2="474" fill="none"  stroke="black"/>
<line x1="91" y1="474" x2="104" y2="474" fill="none"  stroke="black"/>
<polygon fill="rgb(255,255,255)" stroke="black"
points="100,472 100,476 104,474 "/>
<polygon fill="white" stroke="gray"
points="63,454 71,454 71,462 63,462 "/>
<line x1="65" y1="458" x2="70" y2="458" fill="none"  stroke="black"/>
<g id="CancelShape1__40E59454ED4234DF" class="TCancelShape" >
<polygon fill="white" stroke="red"
points="108,469 119,469 119,478 108,478 "/>
<polygon fill="rgb(249,242,180)" stroke="rgb(134,98,4)"
points="106,477 110,473 111,474 111,475 114,475 115,476 115,478 114,479 111,479 111,480 110,481 "/>
<polygon fill="white" stroke="rgb(32,32,32)"
points="125,467 221,467 221,482 125,482 "/>
<text x="130" y="479" font-family="Arial" font-size="10.67"  fill="black">
cancel&#32;&#123;ID.update&#125;
</text>
</g>
<g id="pause" class="TStateShape" >
<rect  x="38" y="594"  width="410" height="36" fill="rgb(128,214,255)" stroke="black" rx="10" ry="10"/>
<text x="229" y="617" font-family="Arial" font-size="10.67"  fill="black">
pause
</text>
</g>
<g id="StateMachineConnection2__40E5944C639357FF" class="TStateMachineConnection" >
<line x1="371" y1="594" x2="371" y2="500" fill="none"  stroke="black"/>
<ellipse cx="371" cy="594" rx="5" ry="5" fill="white" stroke="black"/>
<polygon fill="black" stroke="black"
points="378,515 364,515 371,500 "/>
<text x="349" y="544" font-family="Arial" font-size="10.67"  font-weight="bold" fill="black">
button.1
</text>
<text x="294" y="558" font-family="Arial" font-size="10.67"  fill="maroon">
&lt;script&gt;Timer.resume()&lt;/script&gt;
</text>
<text x="376" y="597" font-family="Arial" font-size="10.67"  font-weight="bold" fill="black">
1)
</text>
</g>
<g id="StateMachineConnection6__40E5944CD8620342" class="TStateMachineConnection" >
<line x1="449" y1="613" x2="474" y2="613" fill="none"  stroke="black"/>
<line x1="474" y1="613" x2="474" y2="121" fill="none"  stroke="black"/>
<line x1="474" y1="121" x2="299" y2="121" fill="none"  stroke="black"/>
<ellipse cx="449" cy="613" rx="5" ry="5" fill="white" stroke="black"/>
<polygon fill="black" stroke="black"
points="314,114 314,128 299,121 "/>
<text x="369" y="134" font-family="Arial" font-size="10.67"  font-weight="bold" fill="black">
button.2
</text>
<text x="320" y="148" font-family="Arial" font-size="10.67"  fill="maroon">
&lt;script&gt;Timer.reset()&lt;/script&gt;
</text>
<text x="454" y="616" font-family="Arial" font-size="10.67"  font-weight="bold" fill="black">
2)
</text>
</g>
<line x1="45" y1="631" x2="45" y2="635" fill="none"  stroke="black"/>
<line x1="49" y1="639" x2="60" y2="639" fill="none"  stroke="black"/>
<polygon fill="rgb(255,255,255)" stroke="black"
points="56,637 56,641 60,639 "/>
<polygon fill="white" stroke="gray"
points="27,608 35,608 35,616 27,616 "/>
<line x1="29" y1="612" x2="34" y2="612" fill="none"  stroke="black"/>
<g id="OnEntryStateShape3__40E59474473B0725" class="TOnEntryStateShape" >
<ellipse cx="69" cy="639" rx="7" ry="7" fill="rgb(0,170,0)" stroke="black"/>
<polygon fill="white" stroke="rgb(32,32,32)"
points="79,632 124,632 124,647 79,647 "/>
<text x="84" y="644" font-family="Arial" font-size="10.67"  fill="black">
onentry
</text>
</g>
<line x1="69" y1="648" x2="69" y2="655" fill="none"  stroke="black"/>
<line x1="69" y1="655" x2="82" y2="655" fill="none"  stroke="black"/>
<polygon fill="rgb(255,255,255)" stroke="black"
points="78,653 78,657 82,655 "/>
<polygon fill="white" stroke="gray"
points="41,635 49,635 49,643 41,643 "/>
<line x1="43" y1="639" x2="48" y2="639" fill="none"  stroke="black"/>
<g id="RaiseShape2__40E59479AE2EFC55" class="TRaiseShape" >
<polygon fill="rgb(255,200,0)" stroke="rgb(191,120,54)"
points="84,648 91,648 91,655 84,655 "/>
<polygon fill="rgb(255,200,0)" stroke="rgb(191,120,54)"
points="90,654 97,654 97,661 90,661 "/>
<polygon fill="rgb(210,234,255)" stroke="rgb(4,121,179)"
points="87,651 94,651 94,658 87,658 "/>
<polygon fill="white" stroke="rgb(32,32,32)"
points="103,648 180,648 180,663 103,663 "/>
<text x="108" y="660" font-family="Arial" font-size="10.67"  fill="black">
raise&#32;&#123;display&#125;
</text>
</g>
<text x="84" y="261" font-family="Arial" font-size="64"  fill="red">
CrispEdges
</text>
<polygon fill="silver" stroke="silver"
points="-15,-13 -5,-13 -5,691 -15,691 "/>
</g>
<polyline fill="none"  stroke="rgb(160,160,160)"
points="0,690 0,0 535,0 "/>
<polyline fill="none"  stroke="white"
points="535,0 535,690 -1,690 "/>
<polyline fill="none"  stroke="rgb(160,160,160)"
points="1,689 1,1 534,1 "/>
<polyline fill="none"  stroke="white"
points="534,1 534,689 0,689 "/>
</svg>
